<svg xmlns="http://www.w3.org/2000/svg" viewBox="0 0 400 500">
<defs><linearGradient id="g" x1="0" y1="0" x2="1" y2="1"><stop offset="0" stop-color="#e8e2d8"/><stop offset="1" stop-color="#cfc6b8"/></linearGradient>
<linearGradient id="sh" x1="0" x2="1"><stop offset="0" stop-color="#000" stop-opacity=".12"/><stop offset=".5" stop-color="#fff" stop-opacity=".08"/><stop offset="1" stop-color="#000" stop-opacity=".14"/></linearGradient></defs>
<rect width="400" height="500" fill="url(#g)"/>
<g fill="#fff" opacity=".6"><circle cx="60" cy="70" r="4"/><circle cx="330" cy="50" r="3"/><circle cx="352" cy="160" r="5"/><circle cx="40" cy="260" r="3"/><circle cx="362" cy="380" r="4"/><circle cx="70" cy="430" r="5"/><circle cx="200" cy="34" r="3"/></g>
<ellipse cx="200" cy="466" rx="125" ry="12" fill="#000" opacity=".1"/>
<path d="M150 95 L250 95 L300 130 L330 300 L300 305 L285 200 L292 448 L108 448 L115 200 L100 305 L70 300 L100 130 Z" fill="#f3efe8"/>
<path d="M150 95 L250 95 L300 130 L330 300 L300 305 L285 200 L292 448 L108 448 L115 200 L100 305 L70 300 L100 130 Z" fill="url(#sh)"/>
<path d="M150 95 L200 152 L250 95 L240 84 L200 120 L160 84 Z" fill="#c7c3be"/>
<path d="M200 152 L160 190 L172 96 Z" fill="#c7c3be" opacity=".55"/><path d="M200 152 L240 190 L228 96 Z" fill="#c7c3be" opacity=".55"/>
<path d="M200 152 L200 448" stroke="#c7c3be" stroke-width="3"/>
<g fill="#7a6550"><circle cx="184" cy="218" r="7"/><circle cx="216" cy="218" r="7"/><circle cx="184" cy="288" r="7"/><circle cx="216" cy="288" r="7"/><circle cx="184" cy="358" r="7"/><circle cx="216" cy="358" r="7"/></g>
<path d="M125 300 L125 310 M275 300 L275 310" stroke="#c7c3be" stroke-width="4"/>
<rect x="124" y="334" width="46" height="8" rx="4" fill="#c7c3be"/><rect x="230" y="334" width="46" height="8" rx="4" fill="#c7c3be"/>
<path d="M104 236 L296 236" stroke="#c7c3be" stroke-width="5" opacity=".7"/><rect x="186" y="228" width="28" height="16" rx="3" fill="none" stroke="#7a6550" stroke-width="3"/></svg>